<svg xmlns="http://www.w3.org/2000/svg"><symbol id="velociraptor" viewBox="0 0 256 256"><path d="M58.7 167.2a31.9 31.9 0 0 0-7.7.8c-.1.1-.1.1-.1.2s.3.6.8.9a12 12 0 0 0 2 1.1l2.7 1 2.8.8 2.4.6 1.5.2h2.1a10.1 10.1 0 0 0 2.5-.4 8.5 8.5 0 0 0 2.4-.9 3.4 3.4 0 0 0 1.7-1.4 24.3 24.3 0 0 0-6.4-2.2 29.9 29.9 0 0 0-6.7-.7z"/><path d="M127.8.5A127.5 127.5 0 1 0 255.3 128 127.5 127.5 0 0 0 127.8.5zM211 70.8v.4a9.5 9.5 0 0 1-.1 1.4q-.2.9-.3 2.1a15.5 15.5 0 0 0-.4 2.1c-.1.6-.2 1.1-.2 1.3a7.6 7.6 0 0 0-.9 1.8 15.9 15.9 0 0 0-.7 2l-.6 2a11.8 11.8 0 0 1-.7 2 21.4 21.4 0 0 1-1.7 3 30.1 30.1 0 0 0-1.6 3.1l-20 27.8a3.9 3.9 0 0 0-.2.6l-.3.2-.3.3-.4.5-1.7 2.3-2 2.9a36.2 36.2 0 0 0-2.2 3.2 29 29 0 0 0-2 3.3 19.4 19.4 0 0 0-1.4 3 5.6 5.6 0 0 0-.5 2.3c0 .3-.3.5-.3.7a1.9 1.9 0 0 1 .2.7c-.1 0-.2.1-.2.3s.1.4.2.4v10.2a3.6 3.6 0 0 1-.2 1c-.2.4-.2.8-.4 1.2s-.5.8-.6 1.2-.4.8-.4 1.1v1.8c0 .1.1.2-.1.4l-.3.8a6 6 0 0 1-.8.8c-.1.3-.5.4-.5.5v.4s.7.2.8.4.9.3.9.4v2.8c0 1.2-.5 2.4-.6 3.6s-.6 2.3-.8 3.5-.5 2.3-.7 3.5a20.7 20.7 0 0 0-.3 3.5q0 3.2.3 6.3a42.3 42.3 0 0 0 1.1 6.2 31 31 0 0 0 2.1 5.8 24.5 24.5 0 0 0 3.4 5.2 3.6 3.6 0 0 1-1.2.8l-1.7.7-1.7.5h-2l-1-.3-1.2-.2-1-.3h-.7l-.8-.3-.6-.5a1.1 1.1 0 0 1-.3-.7 27.7 27.7 0 0 0 .1-4.1 29.7 29.7 0 0 0-.3-4.2c-.1-1.5-.3-2.9-.5-4.3s-.4-2.8-.5-4.1-.1-.3-.2-.6-.2-.6-.3-.6.1-2.4.2-3.7-.1-2.7-.2-4a25.7 25.7 0 0 0-.6-4 12.2 12.2 0 0 0-1.4-3.5 3.5 3.5 0 0 0-1.4 1.9 17.3 17.3 0 0 0-.8 2.7c-.2.9-.2 1.9-.5 2.9s-.9 1.7-.9 2.3v7.5c0 2.8-.2 5.6-.1 8.3a75.4 75.4 0 0 0 .6 8.2l.4.4.8.6a2.7 2.7 0 0 1 .8.7.9.9 0 0 1 .3.6c0 .2-.2.5-.8.8l-1.8.9-2.1.8-1.2.4h-.2l-4.8-2.6c-.2-.1-.2-.4-.2-.5v-.6a29.9 29.9 0 0 1 0-3 28.1 28.1 0 0 0 .1-3 23.4 23.4 0 0 0-.3-3.8c-.1-1.2-.4-2.5-.6-3.7l-.6-3.8c-.1-1.2-.2-2.5-.2-3.9s0-2.3.1-3.3l.3-2.8.6-2.8.6-3.2a1.1 1.1 0 0 0 0-.8 2 2 0 0 1-.1-.7l-1.9.2-1.9.6-1.9.6-1.9.5-1.4.2h-1.1c-.3.1-.6-.1-.9-.1l-1.1-.2h-7.1a45.2 45.2 0 0 0-5.3-.2h-2.4a5.4 5.4 0 0 0-2.4.9 45.1 45.1 0 0 1 0 5.2c0 1.7-.1 3.4-.1 5.1l-.3 5.1c0 1.8-.1 3.5-.1 5.3v1a7.5 7.5 0 0 0 0 1.5v2.6c0 .5.6 1.1 1.1 1.6l1.4 1.8 1.2 1.7a4.1 4.1 0 0 1 .5 1.8v.4a9.4 9.4 0 0 1-4.1.4c.1.5 0 .7-.2.8h-2.7l-2.3-.2a5.1 5.1 0 0 1-1.8-.9 2.3 2.3 0 0 1-.8-1.9c0-.4.1-.8.1-1.2a5 5 0 0 1 .4-1.3l.3-1.4a6.1 6.1 0 0 0 .1-1.4 23.4 23.4 0 0 0-.3-3.8c-.1-1.2-.4-2.4-.6-3.6s-.6-2.7-.9-3.8a32.7 32.7 0 0 1-.7-4h-.4c-.2 0-.4.7-.5.9a2.5 2.5 0 0 0-.4.7.9.9 0 0 0-.3.5l-1.6 2.3-1.5 2.3a24.4 24.4 0 0 0-1 2.4 8.6 8.6 0 0 0-.5 2.7 2.9 2.9 0 0 0 .4 1.6 7.7 7.7 0 0 0 .7 1.6l.7 1.1c.3.3.4.5.4.6s-.2.5-.5.7a2.3 2.3 0 0 1-1 .5l-1.3.3h-2.6l-1.7-.2a1.6 1.6 0 0 1-1.1-.4 1.9 1.9 0 0 1-.7-.8 10.7 10.7 0 0 1-.6-1.7 14.2 14.2 0 0 0-.5-1.6 4.1 4.1 0 0 1-.3-1.6 4.2 4.2 0 0 1 .4-1.5 14 14 0 0 1 1-1.6l1.1-1.6a10.9 10.9 0 0 0 .8-1.5l2.4-5.9c.8-2 1.7-3.9 2.5-5.9a1.8 1.8 0 0 1 .5-.7l.5-.8a1.6 1.6 0 0 0 .4-.7 1.2 1.2 0 0 0 .2-.8c0-.4-.1-.6-.3-.7h-1.3l-9 2.5a3.2 3.2 0 0 1-1.3.5l-1.8.4a7.6 7.6 0 0 0-1.6.6 1.2 1.2 0 0 0-.7 1.1 1.6 1.6 0 0 0 .3.9l.6.6.9.6a1.9 1.9 0 0 1 .7.6l-.4.4-1.3-.8a6.7 6.7 0 0 0-1.4-.9L86 178l-1.5-.2a17.3 17.3 0 0 0-3.8.5l-4 1.1c-1.3.5-2.7.8-4.1 1.2a20.1 20.1 0 0 1-4.2.5 18.5 18.5 0 0 1-3.5-.4l-4.9-1.1-5.4-1.8a39.3 39.3 0 0 1-5-2.2 16.9 16.9 0 0 1-3.7-2.7 4.3 4.3 0 0 1-1.5-3 4.9 4.9 0 0 1 1.1-3.3 6.1 6.1 0 0 1 2.8-1.6c1.1-.4 2.3-.1 3.5-.2s2.4.3 3.4.3h3.9a3.1 3.1 0 0 1 1.3-.2h2.4l2.5.4 2 .2a7.6 7.6 0 0 1 2 .6l1.8.8 1.8.8a6.4 6.4 0 0 0 2 .3 7.8 7.8 0 0 0 4-1.1 25 25 0 0 0 4.1-2.5c1.4-1 2.7-2.1 3.9-3.1l3.3-2.8a12.2 12.2 0 0 1 1.9-1.2l1.8-1.1 1.8-1.3a8.6 8.6 0 0 0 1.5-1.7 48.3 48.3 0 0 0 2.6-4.5q1.2-2.2 2.7-4.5l1.3-1.3 1.6-1 1.6-.9a5.1 5.1 0 0 0 1.6-.9 33.2 33.2 0 0 0 3.6-2.6l3.5-2.9 3.4-3c1.1-1 2.2-2 3.4-2.9a20.8 20.8 0 0 1 3.8-2.2l4-1.9 2.5-1.3 2.4-1.3 2.6-1.1a13.8 13.8 0 0 1 2.7-.8l22.5-3.3a10.1 10.1 0 0 0 3.5-1.1 17.2 17.2 0 0 0 3.3-2.2 28.9 28.9 0 0 0 3.2-2.9l3-3.2 2.6-3.3 2.4-2.8 7.7-9q.2 0 .3-.3l.6-.5.5-.5.3-.3 2-3.3.3-.2.3-.2.4-.2.2-.2.5-.4.3-.4 1.3-1.7a24.3 24.3 0 0 1 1.4-2l1.3-2a9.5 9.5 0 0 0 .9-1.7 8.8 8.8 0 0 0 .9-2c.2-.7.5-1.4.7-2.2s.5-1.4.8-2.2 1-1.4 1-2.2v-6a5.3 5.3 0 0 0-1.1-3.1 11.2 11.2 0 0 0-2.7-2.6 10.6 10.6 0 0 0-3.3-1.8 8.5 8.5 0 0 0-3.3-.7 22.5 22.5 0 0 0-5.8.7 12.4 12.4 0 0 0-5.1 2.6 10.6 10.6 0 0 0-1.5 1.5l-1.6 1.8-1.8 2-1.8 1.9a10.2 10.2 0 0 1-1.8 1.3 3.1 3.1 0 0 1-1.8.5 1.3 1.3 0 0 1-1.2-.5 1.4 1.4 0 0 1-.5-1.1v-.4a4.3 4.3 0 0 0 .1-.5c.1-.2.1-.5.2-.8s.1-.5.1-.8a.8.8 0 0 0 .1-.4 7.9 7.9 0 0 0-.2-1.7l-.6-1.4a3.4 3.4 0 0 1-.6-1.2 2.4 2.4 0 0 1-.3-1.2 1.2 1.2 0 0 0 .9-.3l.4-.6c.1-.3.3-.5.4-.8l.8-.6h2.9c.4 0 .8-.1.9-.4l.7-.6c.1-.1.2 0 .3 0h.1l.3.4a.5.5 0 0 0 .2.4c0-.2.1-.3.4-.4l.6-.4 1.1-.6 1.4-.8 1.3-.8 1.1-.7a1.5 1.5 0 0 0 .6-.4l2.1-1.2 1.8-.7 1.9-.2h6.5l1.5.5 1.5.3 1.5.3 1.6.5a14.9 14.9 0 0 1 4.6 3.1 16.7 16.7 0 0 1 3.2 4.2 21.1 21.1 0 0 1 1.7 5 25.6 25.6 0 0 1 .5 5.5v2.3z"/></symbol><symbol id="micropachycephalosaurus" viewBox="0 0 256 256"><path d="M132.9 151.4c-.3 0-.4.2-.4.6h-.1a.5.5 0 0 0-.5.5c0 .4.2.6.5.6s.4-.2.4-.6h.1a.5.5 0 0 0 .5-.5c0-.4-.2-.6-.5-.6zm1.5-.8a2.4 2.4 0 0 0-.9.8h.3a2.3 2.3 0 0 0 1.1-.3 2.4 2.4 0 0 0 .9-.8h-.3a2 2 0 0 0-1.1.3zm3-2.6c-.3 0-.4.2-.4.6h-.1a.5.5 0 0 0-.5.5h-.1c-.3 0-.5.2-.5.6s.2.6.5.6.5-.2.5-.6h.1c.3 0 .4-.2.4-.6h.1c.4 0 .5-.1.5-.5s-.1-.6-.5-.6zm23.3-5.9a8.7 8.7 0 0 1-1.2 1.4 2 2 0 0 0 .8 1.1h1.1a2.3 2.3 0 0 0 1.4-.4 6.9 6.9 0 0 0 1.1-1.3l.8-1.4c.2-.6.3-1.2.5-1.2h-3.5c-.2.1-.5 1.2-1 1.8z"/><path d="M128.3.5A127.7 127.7 0 1 0 256 128.2 127.6 127.6 0 0 0 128.3.5zm95.8 75.7a4.2 4.2 0 0 1-1.6.4h-3.7l-5.2 1.4a18.6 18.6 0 0 0-3.7 1.6 10.7 10.7 0 0 0-2.5 2.2 10.9 10.9 0 0 0-1.8 3 40.4 40.4 0 0 0-1.5 3.9l-1.6 5.1-1.2 3.4c-.4 1.1-.9 2.2-1.3 3.2a22 22 0 0 1-1.5 3.1c-.5 1.1-1.1 2.2-1.7 3.3a29 29 0 0 1-2.7 4.1c-.9 1.2-1.9 2.5-3 3.7l-3.1 3.5c-1 1.2-2.1 2.5-3.1 3.9a11.6 11.6 0 0 0-1.4 2.7 18.6 18.6 0 0 1-1 2.5 7.6 7.6 0 0 1-1.3 2.3 6.7 6.7 0 0 1-2.5 1.6l-1.3.5-2.1.7-2 .6-1.4.4a3.3 3.3 0 0 1 .2 2.1 2 2 0 0 1-.9.9l-1.2.6a2 2 0 0 0-.9.9l-2.3 6.8a2.5 2.5 0 0 1-1 1.5 6.1 6.1 0 0 1-1.8.9 13.6 13.6 0 0 1-2 .2l-1.9-.2h-.8c-.5 0-.9.2-1.2.1s-.4-.3-.4-.9v-.3c.1-.2.2-.2.3-.3l.2-.3c.1-.1.1-.2.1-.4v-.2a28.1 28.1 0 0 0-3.5 1.7l-3.4 2-3.3 2.2a23.3 23.3 0 0 1-3.4 2l-.9.5-1.1.5-1 .8a1.6 1.6 0 0 0-.5 1.1v.5l1.8 1.7 1.9 1.7 2.1 1.6 2.1 1.3 1.8.6 2 .6 1.9.6 1.7.9a9.3 9.3 0 0 1 1.3 1.5l1.1 1.5a17.1 17.1 0 0 0 1.1 1.4 4.7 4.7 0 0 0 1.5 1.3 3.8 3.8 0 0 0 1.7.6l2.1.7a5.2 5.2 0 0 1 1.8 1 2.1 2.1 0 0 1 .8 1.7.4.4 0 0 0-.1.3v.2l-5.6 1.2a3.5 3.5 0 0 0-1.1.3 2.1 2.1 0 0 1-1.2.3h-.5l-1.2-.7-1.7-1-1.7-1-1.1-.7-.2-.3-.3-.5-.3-.5-.3-.5-2.2-4.5-1.2-.4-1.8-.8-2.2-.9-2.1-1-1.8-.8-1.1-.6-2.8-1.6a13.8 13.8 0 0 1-2.6-2.2 13.9 13.9 0 0 1-2.1-2.7 8.1 8.1 0 0 1-1-3.1l-.6.2-.6.4-.8.6-1.8 1.2-2.1 1.4-2.1 1.4-1.8 1.1-.9.5-6 3.5a24.2 24.2 0 0 0-4.6 3.5 15.4 15.4 0 0 0-3.6 4.4c-.9 1.8-.8 4-2.4 6.7v.6c-.1.2 0 .4 0 .5v.5a10.5 10.5 0 0 0 1.1 4.4 8.5 8.5 0 0 0 4.8 4l2.6 1a4.4 4.4 0 0 1 1.9 1 4.5 4.5 0 0 1 .9 2h-13.3l-.2-.4c-.1-.2-.2-.1-.4-.2h-.5l-.6-.4a2.6 2.6 0 0 1-1.2-1.5 7.9 7.9 0 0 1-.5-2.2 9 9 0 0 1 .2-2.3c0-.8.3-1.5.3-2.1v-1.5a6.6 6.6 0 0 1 .2-1.7 18.1 18.1 0 0 0 .6-2.7c.3-1 .5-2.1.8-3.2s.5-2.2.8-3.2.5-1.9.7-2.6l.4-1.8a9.3 9.3 0 0 1 .7-2 8.2 8.2 0 0 1 .9-1.9 15.4 15.4 0 0 0 4.6-2.6 32.7 32.7 0 0 0 3.2-3.3l3-3.5a17 17 0 0 1 3.4-3.1l1.5-.7 2-.8 2.3-.9 2.2-1.2a7 7 0 0 0 1.6-1.3 2.5 2.5 0 0 0 .6-1.6v-1.3a1.7 1.7 0 0 0-.6-1.2l-.8-.3-1.2-.5-1.2-.6-.8-.3a7.3 7.3 0 0 1-2-1.3l-2.7-1.9-2.5-1.5a3.4 3.4 0 0 0-1.8-.6h-7.9c-6 0-11.9-.1-17.7.1S78 134 72 134q-6.6 0-12.9-.3c-4.2-.3-8.4-.7-12.5-1.4a84.2 84.2 0 0 1-12-3 67.1 67.1 0 0 1-11.9-5l-1.4-.8-1.6-1-1.3-1.3a2.4 2.4 0 0 1-.5-1.6 9.5 9.5 0 0 1 2.1.4l2.4 1 2.2 1 1.5.6 4.7 1.7 5.1 1.4a45.9 45.9 0 0 0 5.1 1 28.5 28.5 0 0 0 4.9.4h25.4l1.3-.2 2.5-.3 3.4-.5 3.6-.6 3.5-.7 2.7-.5 6.9-1.4 7.4-1.6c2.5-.6 4.9-1.3 7.3-2.1a50.4 50.4 0 0 0 6.6-2.8l3.9-1.8 3.8-1.6 4-1.4c1.3-.3 2.7-.7 4.2-.9h2.8l1.8-.2h1l1.9-.4 3.4-.7 4.1-.9 4-.9c1.3-.3 2.4-1 3.4-1.2s1.5-.7 1.9-.7h6.5c2.8 0 5.4.5 8 .7s5.2.5 7.9.5a10 10 0 0 0 5-1.2 19.3 19.3 0 0 0 4.6-3.5 39.2 39.2 0 0 0 3.9-5q1.8-2.9 3.3-5.7c.9-1.9 1.8-3.8 2.5-5.6l1.8-4.8c.4-1.2.8-2.4 1.1-3.5s.7-2.2 1-3.2l1.2-2.6a8.6 8.6 0 0 1 1.8-2 7.2 7.2 0 0 1 2.7-1.6 12.7 12.7 0 0 1 3.8-.8h3.1c.7 1.7 1.7.9 2.9 1.3a19.6 19.6 0 0 1 3.6 1.6 10.9 10.9 0 0 1 3 1.8 3.1 3.1 0 0 1 1.3 2.2 2 2 0 0 1-.5 1.4z"/></symbol><symbol id="brachiosaurus" viewBox="0 0 256 256"><path d="M128.5.5A127.5 127.5 0 1 0 256 128 127.5 127.5 0 0 0 128.5.5zm110.3 116.3h-7.4c-3.1 0-6.2-.2-9.2-.4l-9.1-1-9.1-1c-3.1-.3-6.2-.4-9.3-.4a128.5 128.5 0 0 0-16.3 1 64.9 64.9 0 0 0-15.8 3.7l-30.7 11a2.7 2.7 0 0 0-1.2 1.6 17.3 17.3 0 0 0-.8 2.7l-.6 2.9a9.8 9.8 0 0 1-.6 2 3.2 3.2 0 0 0 1.3 1.3l2.5 1.1 2.9 1.2a15.1 15.1 0 0 1 2.8 1.5 7.3 7.3 0 0 1 2 1.9 3.6 3.6 0 0 1 .9 2.4 1.7 1.7 0 0 1-.5 1.2 3.8 3.8 0 0 1-1.2.9l-1.6.7-1.7.8a4.3 4.3 0 0 0-1.2 1.1 2.5 2.5 0 0 0-.5 1.5 3.7 3.7 0 0 0 .8 2.5 7.8 7.8 0 0 0 2 1.6l2.3 1.4a6.2 6.2 0 0 1 2.2 1.7 16.8 16.8 0 0 1 2 3.4 20.5 20.5 0 0 1 1.3 3.7c.3 1.3.6 2.6.8 3.9s.1 2.6.2 4l1.4 1.3v7.2h1.8l1 .3.6.2a5.4 5.4 0 0 0 .1.8c0 .3-.1.6-.1 1a5.6 5.6 0 0 1-.4 1.2 4.4 4.4 0 0 1-.6 1 1.1 1.1 0 0 1-.9.3h-5.2c-.2 0-.5-.5-1-.8l-1.5-.9-1.6-.8c-.5-.3-.9-.8-1.1-.8h-6.2a4.4 4.4 0 0 1 2.3-4.6 6.5 6.5 0 0 1 2.1-.6l2.1-.4a4.3 4.3 0 0 0 1.7-.6 1.4 1.4 0 0 0 .6-1.3v-.7l-.9-1.7-1.3-2.5a16.5 16.5 0 0 0-1.5-2.5 9.7 9.7 0 0 0-1.6-1.8l-1.3-.8-1.8-.9-1.8-1.1a1.9 1.9 0 0 1-.9-1.1 16.3 16.3 0 0 1-1-2.9 17.3 17.3 0 0 0-1.1-3.2 6.9 6.9 0 0 0-1.7-2.6 4 4 0 0 0-2.9-1.1 24.7 24.7 0 0 0-6 .8 24.2 24.2 0 0 0-5.8 2.3 27.6 27.6 0 0 0-5 3.4 24.4 24.4 0 0 0-3.9 4.6l-.4.2h-.1l-.2-.2-.2-.3c0-.2-.1-.4-.1-.6a6.4 6.4 0 0 0-.2-.7v-.3h-.4a1.6 1.6 0 0 0-1.1.5 6.2 6.2 0 0 0-.9 1.2l-.8 1.3a2.9 2.9 0 0 1-.8 1 5.2 5.2 0 0 1-.7-1.6c0-.5-.1-1-.1-1.7a13.5 13.5 0 0 1 .4-2.9l.9-2.8a11.4 11.4 0 0 0 .9-2.6 14.1 14.1 0 0 0 .4-2.7h-4.8c0-1.7.2-1.8.6-2.4a6.1 6.1 0 0 1 1.6-1.6 8.5 8.5 0 0 1 2.2-.9 7.6 7.6 0 0 1 2.1-.3 15.1 15.1 0 0 1 3 .2l3 .5 2.8.4a15.1 15.1 0 0 0 3 .2h2.3a2.4 2.4 0 0 0-1.7-1.4l-2.6-.5-2.6-.2c-.9 0-1.7.2-2.2-.2l-4-2.1h-.2a17.4 17.4 0 0 0-3.2-.1 11.3 11.3 0 0 1-3.2.2 7.3 7.3 0 0 1-3-.7l-2.6-1.4-2.7-1.4a5.8 5.8 0 0 0-2.8-.6v6.1l1.6-.2 1-.3.8-.5c.4-.2.4-.4.9-.7h.6v2.7l2.1-.7c0 .1.2.3.2.5a4.3 4.3 0 0 0 .1.5 5.6 5.6 0 0 1-1.3 3.9 19 19 0 0 1-3.3 2.9 29.2 29.2 0 0 0-4.6-1.3l-4.8-.6v-7.9l-1.7.6-2.1 1-1.9 1.2c-.5.4-1 .8-1 1.2v6.9a9.6 9.6 0 0 0 3-.3l1.9-.6 1.2-.6a2.4 2.4 0 0 1 1.2-.3h.4l.3.7c.1.4.3.8.4 1.3a6.5 6.5 0 0 1 .4 1.3 5.1 5.1 0 0 1 .2.9 4.3 4.3 0 0 1-.4 1.9 5.4 5.4 0 0 1-1.1 1.8 5 5 0 0 1-1.5 1.4 3.2 3.2 0 0 1-1.9.5h-1l-3-.5a24.1 24.1 0 0 1-3.7-.7 13.3 13.3 0 0 1-3.2-1.2 2.5 2.5 0 0 1-1.5-2.1V150c0-.2.4-.4.9-.9a20.2 20.2 0 0 0 1.9-1.6 22.9 22.9 0 0 0 2.4-2.2 18.8 18.8 0 0 0 2.4-2.5 21.1 21.1 0 0 0 1.8-2.7 5.1 5.1 0 0 0 .7-2.6 4 4 0 0 0-1.1-2.7 14.6 14.6 0 0 0-2.8-2.1l-3.3-1.4-2.6-.9-1.3-9.1a13.1 13.1 0 0 0-.6-2.7 8.6 8.6 0 0 0-1.1-2.8 7.4 7.4 0 0 0-1.8-2.1 3.9 3.9 0 0 0-2.6-.9 10.7 10.7 0 0 0-3.7.5 13 13 0 0 0-3.2 1.5l-1.6 1-2.6 1.5-3 1.7-2.9 1.8a29.4 29.4 0 0 0-2.6 1.7c-.8.4-1.3 1.1-1.6 1.1h-1.1l-1.7-.3-2.1-.3a4.1 4.1 0 0 1-1.3-.8c-.5-.3-.4-.8-.4-1.4v-1.9c0-.6-.2-.9.1-.9h1.5v-.4c.1-.3.1-.6.2-.9s.1-.5.2-.8v-.5c-.3-.4-.5-.7-.8-.8l-.9-.5a2.3 2.3 0 0 1-.7-.7 2.3 2.3 0 0 1-.3-1.3 2.6 2.6 0 0 1 .3-1.1 4.5 4.5 0 0 1 .6-1.2c.3-.4.3-.7.7-.9l.8-.3v.8c0 .5.4 1 .5 1.4a1.3 1.3 0 0 0 1.2.8 1.6 1.6 0 0 0 1.1-.5 5.2 5.2 0 0 0 1-1.1 5.8 5.8 0 0 0 .6-1.7c.2-.4.3.3.3-1.4H21.7l-.8-.4-1.1-.7-.9-.8a1.3 1.3 0 0 1-.4-1 4.4 4.4 0 0 1 1.1-3.2 6.8 6.8 0 0 1 2.6-1.8 11.9 11.9 0 0 1 3.2-1l2.9-.9 2.2-.9 3.3-1.6a26.8 26.8 0 0 0 3.4-1.6 8.9 8.9 0 0 1 2.2-1H53a7.1 7.1 0 0 1 3.9 1 10.7 10.7 0 0 1 3.1 2.5 21 21 0 0 1 2.6 3.3c.8 1.2 1.5 2.3 2.3 3.3a14.7 14.7 0 0 0 2.3 2.6 3.7 3.7 0 0 0 2.5 1 .7.7 0 0 0 .7-.4 1 1 0 0 1 .9-.4 4 4 0 0 1 1.5.3l1.5.7 1.6.7a4 4 0 0 0 1.5.3 27.5 27.5 0 0 0 4.1-.2l4.2-.4 4.1-.5 4.1-.2a57.4 57.4 0 0 1 7.3.4 33.1 33.1 0 0 1 7.3 1.6c1.6.5 3.3 1.2 5 1.9l5.1 2.2a55.2 55.2 0 0 0 5.3 1.8 20 20 0 0 0 5.4.7h2.6q6.4-1.5 12.9-2.7c4.3-.9 8.6-1.7 12.9-2.3s8.6-1.2 13-1.6 8.7-.6 13.1-.6h3.3l5.6.2a34.4 34.4 0 0 1 5 .9l36.5 7.3H246c-.8 0-1.9 1-3.2 1.3a13.3 13.3 0 0 1-4 .1z"/></symbol></svg>