<svg id="Layer_1" data-name="Layer 1" xmlns="http://www.w3.org/2000/svg" width="256" height="256" viewBox="0 0 256 256"><title>micropachycephalosaurus</title><path d="M132.9,151.4c-.3,0-.4.2-.4.6h-.1a.5.5,0,0,0-.5.5c0,.4.2.6.5.6s.4-.2.4-.6h.1a.5.5,0,0,0,.5-.5C133.4,151.6,133.2,151.4,132.9,151.4Z"/><path d="M134.4,150.6a2.4,2.4,0,0,0-.9.8h.3a2.3,2.3,0,0,0,1.1-.3,2.4,2.4,0,0,0,.9-.8h-.3A2,2,0,0,0,134.4,150.6Z"/><path d="M137.4,148c-.3,0-.4.2-.4.6h-.1a.5.5,0,0,0-.5.5h-.1c-.3,0-.5.2-.5.6s.2.6.5.6.5-.2.5-.6h.1c.3,0,.4-.2.4-.6h.1c.4,0,.5-.1.5-.5S137.8,148,137.4,148Z"/><path d="M160.7,142.1a8.7,8.7,0,0,1-1.2,1.4,2,2,0,0,0,.8,1.1h1.1a2.3,2.3,0,0,0,1.4-.4,6.9,6.9,0,0,0,1.1-1.3l.8-1.4c.2-.6.3-1.2.5-1.2h-3.5C161.5,140.4,161.2,141.5,160.7,142.1Z"/><path d="M128.3.5A127.7,127.7,0,1,0,256,128.2,127.6,127.6,0,0,0,128.3.5Zm95.8,75.7a4.2,4.2,0,0,1-1.6.4h-3.7L213.6,78a18.6,18.6,0,0,0-3.7,1.6,10.7,10.7,0,0,0-2.5,2.2,10.9,10.9,0,0,0-1.8,3,40.4,40.4,0,0,0-1.5,3.9l-1.6,5.1-1.2,3.4c-.4,1.1-.9,2.2-1.3,3.2a22,22,0,0,1-1.5,3.1c-.5,1.1-1.1,2.2-1.7,3.3a29,29,0,0,1-2.7,4.1c-.9,1.2-1.9,2.5-3,3.7l-3.1,3.5c-1,1.2-2.1,2.5-3.1,3.9a11.6,11.6,0,0,0-1.4,2.7,18.6,18.6,0,0,1-1,2.5,7.6,7.6,0,0,1-1.3,2.3,6.7,6.7,0,0,1-2.5,1.6l-1.3.5-2.1.7-2,.6-1.4.4a3.3,3.3,0,0,1,.2,2.1,2,2,0,0,1-.9.9l-1.2.6a2,2,0,0,0-.9.9l-2.3,6.8a2.5,2.5,0,0,1-1,1.5,6.1,6.1,0,0,1-1.8.9,13.6,13.6,0,0,1-2,.2l-1.9-.2h-.8c-.5,0-.9.2-1.2.1s-.4-.3-.4-.9v-.3c.1-.2.2-.2.3-.3l.2-.3c.1-.1.1-.2.1-.4h0v-.2a28.1,28.1,0,0,0-3.5,1.7l-3.4,2-3.3,2.2a23.3,23.3,0,0,1-3.4,2l-.9.5-1.1.5-1,.8a1.6,1.6,0,0,0-.5,1.1v.5l1.8,1.7,1.9,1.7,2.1,1.6,2.1,1.3,1.8.6,2,.6,1.9.6,1.7.9a9.3,9.3,0,0,1,1.3,1.5l1.1,1.5a17.1,17.1,0,0,0,1.1,1.4,4.7,4.7,0,0,0,1.5,1.3,3.8,3.8,0,0,0,1.7.6l2.1.7a5.2,5.2,0,0,1,1.8,1,2.1,2.1,0,0,1,.8,1.7.4.4,0,0,0-.1.3v.2l-5.6,1.2a3.5,3.5,0,0,0-1.1.3,2.1,2.1,0,0,1-1.2.3h-.5l-1.2-.7-1.7-1-1.7-1-1.1-.7-.2-.3-.3-.5-.3-.5-.3-.5-2.2-4.5-1.2-.4-1.8-.8-2.2-.9-2.1-1-1.8-.8-1.1-.6-2.8-1.6a13.8,13.8,0,0,1-2.6-2.2,13.9,13.9,0,0,1-2.1-2.7,8.1,8.1,0,0,1-1-3.1l-.6.2-.6.4-.8.6-1.8,1.2-2.1,1.4-2.1,1.4-1.8,1.1-.9.5-6,3.5a24.2,24.2,0,0,0-4.6,3.5,15.4,15.4,0,0,0-3.6,4.4c-.9,1.8-.8,4-2.4,6.7v.6c-.1.2,0,.4,0,.5v.5a10.5,10.5,0,0,0,1.1,4.4,8.5,8.5,0,0,0,4.8,4l2.6,1a4.4,4.4,0,0,1,1.9,1,4.5,4.5,0,0,1,.9,2H102.4l-.2-.4c-.1-.2-.2-.1-.4-.2h-.5l-.6-.4a2.6,2.6,0,0,1-1.2-1.5,7.9,7.9,0,0,1-.5-2.2,9,9,0,0,1,.2-2.3c0-.8.3-1.5.3-2.1v-1.5a6.6,6.6,0,0,1,.2-1.7,18.1,18.1,0,0,0,.6-2.7c.3-1,.5-2.1.8-3.2s.5-2.2.8-3.2.5-1.9.7-2.6l.4-1.8a9.3,9.3,0,0,1,.7-2,8.2,8.2,0,0,1,.9-1.9,15.4,15.4,0,0,0,4.6-2.6,32.7,32.7,0,0,0,3.2-3.3l3-3.5a17,17,0,0,1,3.4-3.1l1.5-.7,2-.8,2.3-.9,2.2-1.2a7,7,0,0,0,1.6-1.3,2.5,2.5,0,0,0,.6-1.6v-1.3a1.7,1.7,0,0,0-.6-1.2l-.8-.3-1.2-.5-1.2-.6-.8-.3a7.3,7.3,0,0,1-2-1.3l-2.7-1.9-2.5-1.5a3.4,3.4,0,0,0-1.8-.6h-7.9c-6,0-11.9-.1-17.7.1S78,134,72,134q-6.6,0-12.9-.3c-4.2-.3-8.4-.7-12.5-1.4a84.2,84.2,0,0,1-12-3,67.1,67.1,0,0,1-11.9-5l-1.4-.8-1.6-1-1.3-1.3a2.4,2.4,0,0,1-.5-1.6,9.5,9.5,0,0,1,2.1.4l2.4,1,2.2,1,1.5.6,4.7,1.7,5.1,1.4a45.9,45.9,0,0,0,5.1,1,28.5,28.5,0,0,0,4.9.4H71.3l1.3-.2,2.5-.3,3.4-.5,3.6-.6,3.5-.7,2.7-.5,6.9-1.4,7.4-1.6c2.5-.6,4.9-1.3,7.3-2.1a50.4,50.4,0,0,0,6.6-2.8l3.9-1.8,3.8-1.6,4-1.4c1.3-.3,2.7-.7,4.2-.9h2.8l1.8-.2h1l1.9-.4,3.4-.7,4.1-.9,4-.9c1.3-.3,2.4-1,3.4-1.2s1.5-.7,1.9-.7h6.5c2.8,0,5.4.5,8,.7s5.2.5,7.9.5a10,10,0,0,0,5-1.2,19.3,19.3,0,0,0,4.6-3.5,39.2,39.2,0,0,0,3.9-5q1.8-2.9,3.3-5.7c.9-1.9,1.8-3.8,2.5-5.6l1.8-4.8c.4-1.2.8-2.4,1.1-3.5s.7-2.2,1-3.2l1.2-2.6a8.6,8.6,0,0,1,1.8-2,7.2,7.2,0,0,1,2.7-1.6,12.7,12.7,0,0,1,3.8-.8h3.1c.7,1.7,1.7.9,2.9,1.3a19.6,19.6,0,0,1,3.6,1.6,10.9,10.9,0,0,1,3,1.8,3.1,3.1,0,0,1,1.3,2.2,2,2,0,0,1-.5,1.4Z"/></svg>