<svg id="Layer_1" data-name="Layer 1" xmlns="http://www.w3.org/2000/svg" width="256" height="256" viewBox="0 0 256 256"><title>velociraptor</title><path d="M58.7,167.2a31.9,31.9,0,0,0-7.7.8h0c-.1.1-.1.1-.1.2s.3.6.8.9a12,12,0,0,0,2,1.1l2.7,1,2.8.8,2.4.6,1.5.2h2.1a10.1,10.1,0,0,0,2.5-.4,8.5,8.5,0,0,0,2.4-.9,3.4,3.4,0,0,0,1.7-1.4,24.3,24.3,0,0,0-6.4-2.2A29.9,29.9,0,0,0,58.7,167.2Z"/><path d="M127.8.5A127.5,127.5,0,1,0,255.3,128,127.5,127.5,0,0,0,127.8.5ZM211,70.8v.4a9.5,9.5,0,0,1-.1,1.4q-.2.9-.3,2.1a15.5,15.5,0,0,0-.4,2.1c-.1.6-.2,1.1-.2,1.3a7.6,7.6,0,0,0-.9,1.8,15.9,15.9,0,0,0-.7,2l-.6,2a11.8,11.8,0,0,1-.7,2,21.4,21.4,0,0,1-1.7,3,30.1,30.1,0,0,0-1.6,3.1l-20,27.8a3.9,3.9,0,0,0-.2.6l-.3.2-.3.3-.4.5-1.7,2.3-2,2.9a36.2,36.2,0,0,0-2.2,3.2,29,29,0,0,0-2,3.3,19.4,19.4,0,0,0-1.4,3,5.6,5.6,0,0,0-.5,2.3c0,.3-.3.5-.3.7a1.9,1.9,0,0,1,.2.7h0c-.1,0-.2.1-.2.3s.1.4.2.4v10.2a3.6,3.6,0,0,1-.2,1c-.2.4-.2.8-.4,1.2s-.5.8-.6,1.2-.4.8-.4,1.1V157c0,.1.1.2-.1.4l-.3.8a6,6,0,0,1-.8.8c-.1.3-.5.4-.5.5v.4s.7.2.8.4.9.3.9.4v2.8c0,1.2-.5,2.4-.6,3.6s-.6,2.3-.8,3.5-.5,2.3-.7,3.5a20.7,20.7,0,0,0-.3,3.5q0,3.2.3,6.3a42.3,42.3,0,0,0,1.1,6.2,31,31,0,0,0,2.1,5.8,24.5,24.5,0,0,0,3.4,5.2,3.6,3.6,0,0,1-1.2.8l-1.7.7-1.7.5h-2l-1-.3-1.2-.2-1-.3h-.7l-.8-.3-.6-.5a1.1,1.1,0,0,1-.3-.7,27.7,27.7,0,0,0,.1-4.1,29.7,29.7,0,0,0-.3-4.2c-.1-1.5-.3-2.9-.5-4.3s-.4-2.8-.5-4.1-.1-.3-.2-.6-.2-.6-.3-.6.1-2.4.2-3.7-.1-2.7-.2-4a25.7,25.7,0,0,0-.6-4,12.2,12.2,0,0,0-1.4-3.5,3.5,3.5,0,0,0-1.4,1.9,17.3,17.3,0,0,0-.8,2.7c-.2.9-.2,1.9-.5,2.9s-.9,1.7-.9,2.3V185c0,2.8-.2,5.6-.1,8.3a75.4,75.4,0,0,0,.6,8.2l.4.4.8.6a2.7,2.7,0,0,1,.8.7.9.9,0,0,1,.3.6c0,.2-.2.5-.8.8l-1.8.9-2.1.8-1.2.4h-.2l-4.8-2.6c-.2-.1-.2-.4-.2-.5V203a29.9,29.9,0,0,1,0-3,28.1,28.1,0,0,0,.1-3,23.4,23.4,0,0,0-.3-3.8c-.1-1.2-.4-2.5-.6-3.7l-.6-3.8c-.1-1.2-.2-2.5-.2-3.9s0-2.3.1-3.3l.3-2.8.6-2.8.6-3.2a1.1,1.1,0,0,0,0-.8,2,2,0,0,1-.1-.7l-1.9.2-1.9.6-1.9.6-1.9.5-1.4.2h-1.1c-.3.1-.6-.1-.9-.1l-1.1-.2h-7.1a45.2,45.2,0,0,0-5.3-.2h-2.4a5.4,5.4,0,0,0-2.4.9,45.1,45.1,0,0,1,0,5.2c0,1.7-.1,3.4-.1,5.1l-.3,5.1c0,1.8-.1,3.5-.1,5.3v1a7.5,7.5,0,0,0,0,1.5v2.6c0,.5.6,1.1,1.1,1.6l1.4,1.8,1.2,1.7a4.1,4.1,0,0,1,.5,1.8v.4a9.4,9.4,0,0,1-4.1.4c.1.5,0,.7-.2.8h-2.7l-2.3-.2a5.1,5.1,0,0,1-1.8-.9,2.3,2.3,0,0,1-.8-1.9c0-.4.1-.8.1-1.2a5,5,0,0,1,.4-1.3l.3-1.4a6.1,6.1,0,0,0,.1-1.4,23.4,23.4,0,0,0-.3-3.8c-.1-1.2-.4-2.4-.6-3.6s-.6-2.7-.9-3.8a32.7,32.7,0,0,1-.7-4h-.4c-.2,0-.4.7-.5.9a2.5,2.5,0,0,0-.4.7.9.9,0,0,0-.3.5l-1.6,2.3-1.5,2.3a24.4,24.4,0,0,0-1,2.4,8.6,8.6,0,0,0-.5,2.7,2.9,2.9,0,0,0,.4,1.6,7.7,7.7,0,0,0,.7,1.6l.7,1.1c.3.3.4.5.4.6s-.2.5-.5.7a2.3,2.3,0,0,1-1,.5l-1.3.3H99.2l-1.7-.2a1.6,1.6,0,0,1-1.1-.4,1.9,1.9,0,0,1-.7-.8,10.7,10.7,0,0,1-.6-1.7,14.2,14.2,0,0,0-.5-1.6,4.1,4.1,0,0,1-.3-1.6,4.2,4.2,0,0,1,.4-1.5,14,14,0,0,1,1-1.6l1.1-1.6a10.9,10.9,0,0,0,.8-1.5l2.4-5.9c.8-2,1.7-3.9,2.5-5.9a1.8,1.8,0,0,1,.5-.7l.5-.8a1.6,1.6,0,0,0,.4-.7,1.2,1.2,0,0,0,.2-.8c0-.4-.1-.6-.3-.7h-1.3l-9,2.5a3.2,3.2,0,0,1-1.3.5l-1.8.4a7.6,7.6,0,0,0-1.6.6,1.2,1.2,0,0,0-.7,1.1,1.6,1.6,0,0,0,.3.9l.6.6.9.6a1.9,1.9,0,0,1,.7.6l-.4.4-1.3-.8a6.7,6.7,0,0,0-1.4-.9L86,178l-1.5-.2a17.3,17.3,0,0,0-3.8.5l-4,1.1c-1.3.5-2.7.8-4.1,1.2a20.1,20.1,0,0,1-4.2.5,18.5,18.5,0,0,1-3.5-.4L60,179.6l-5.4-1.8a39.3,39.3,0,0,1-5-2.2,16.9,16.9,0,0,1-3.7-2.7,4.3,4.3,0,0,1-1.5-3,4.9,4.9,0,0,1,1.1-3.3,6.1,6.1,0,0,1,2.8-1.6c1.1-.4,2.3-.1,3.5-.2s2.4.3,3.4.3h3.9a3.1,3.1,0,0,1,1.3-.2h2.4l2.5.4,2,.2a7.6,7.6,0,0,1,2,.6l1.8.8,1.8.8a6.4,6.4,0,0,0,2,.3,7.8,7.8,0,0,0,4-1.1,25,25,0,0,0,4.1-2.5c1.4-1,2.7-2.1,3.9-3.1l3.3-2.8a12.2,12.2,0,0,1,1.9-1.2l1.8-1.1,1.8-1.3a8.6,8.6,0,0,0,1.5-1.7,48.3,48.3,0,0,0,2.6-4.5q1.2-2.2,2.7-4.5l1.3-1.3,1.6-1,1.6-.9a5.1,5.1,0,0,0,1.6-.9,33.2,33.2,0,0,0,3.6-2.6l3.5-2.9,3.4-3c1.1-1,2.2-2,3.4-2.9a20.8,20.8,0,0,1,3.8-2.2l4-1.9,2.5-1.3,2.4-1.3,2.6-1.1a13.8,13.8,0,0,1,2.7-.8l22.5-3.3a10.1,10.1,0,0,0,3.5-1.1,17.2,17.2,0,0,0,3.3-2.2,28.9,28.9,0,0,0,3.2-2.9l3-3.2,2.6-3.3,2.4-2.8,7.7-9q.2,0,.3-.3l.6-.5.5-.5.3-.3,2-3.3.3-.2.3-.2.4-.2.2-.2.5-.4.3-.4,1.3-1.7a24.3,24.3,0,0,1,1.4-2l1.3-2a9.5,9.5,0,0,0,.9-1.7,8.8,8.8,0,0,0,.9-2c.2-.7.5-1.4.7-2.2s.5-1.4.8-2.2,1-1.4,1-2.2V63.8a5.3,5.3,0,0,0-1.1-3.1,11.2,11.2,0,0,0-2.7-2.6,10.6,10.6,0,0,0-3.3-1.8,8.5,8.5,0,0,0-3.3-.7,22.5,22.5,0,0,0-5.8.7,12.4,12.4,0,0,0-5.1,2.6,10.6,10.6,0,0,0-1.5,1.5l-1.6,1.8-1.8,2-1.8,1.9a10.2,10.2,0,0,1-1.8,1.3,3.1,3.1,0,0,1-1.8.5,1.3,1.3,0,0,1-1.2-.5,1.4,1.4,0,0,1-.5-1.1v-.4a4.3,4.3,0,0,0,.1-.5c.1-.2.1-.5.2-.8s.1-.5.1-.8a.8.8,0,0,0,.1-.4,7.9,7.9,0,0,0-.2-1.7l-.6-1.4a3.4,3.4,0,0,1-.6-1.2,2.4,2.4,0,0,1-.3-1.2,1.2,1.2,0,0,0,.9-.3l.4-.6c.1-.3.3-.5.4-.8l.8-.6h2.9c.4,0,.8-.1.9-.4l.7-.6c.1-.1.2,0,.3,0h.1l.3.4a.5.5,0,0,0,.2.4c0-.2.1-.3.4-.4l.6-.4,1.1-.6,1.4-.8,1.3-.8,1.1-.7a1.5,1.5,0,0,0,.6-.4l2.1-1.2,1.8-.7,1.9-.2h6.5l1.5.5,1.5.3,1.5.3,1.6.5a14.9,14.9,0,0,1,4.6,3.1,16.7,16.7,0,0,1,3.2,4.2,21.1,21.1,0,0,1,1.7,5,25.6,25.6,0,0,1,.5,5.5v2.3Z"/></svg>